<svg viewBox="0 0 896 1024" xmlns="http://www.w3.org/2000/svg" fill-rule="evenodd" clip-rule="evenodd" stroke-linejoin="round" stroke-miterlimit="1.414"><path d="M800 64H96c-53.02 0-96 42.98-96 96v704c0 53.02 42.98 96 96 96h704c53.02 0 96-42.98 96-96V160c0-53.02-42.98-96-96-96zM356.234 524.208C174.858 392.574 176.706 392.242 128 354.334V304c0-26.51 21.49-48 48-48h544c26.51 0 48 21.49 48 48v50.334c-48.742 37.938-46.868 38.248-228.234 169.876-21 15.31-62.784 52.24-91.766 51.788-29.006.436-70.734-36.454-91.766-51.79zM768 435.55V720c0 26.51-21.49 48-48 48H176c-26.51 0-48-21.49-48-48V435.55c27.916 21.588 66.658 50.472 190.606 140.428 28.324 20.682 75.95 64.29 129.388 64.02 53.774.268 102.074-44.082 129.44-64.05C701.35 486.018 740.084 457.136 768 435.55z" fill="#fffcf9" fill-rule="nonzero"/></svg>