<svg viewBox="0 0 896 1024" xmlns="http://www.w3.org/2000/svg" fill-rule="evenodd" clip-rule="evenodd" stroke-linejoin="round" stroke-miterlimit="1.414"><path d="M800 64H96c-53 0-96 43-96 96v704c0 53 43 96 96 96h704c53 0 96-43 96-96V160c0-53-43-96-96-96zm-97.8 317.6c.4 5.6.4 11.4.4 17 0 173.4-132 373.2-373.2 373.2C255 771.8 186 750.2 128 713c10.6 1.2 20.8 1.6 31.6 1.6 61.4 0 117.8-20.8 162.8-56-57.6-1.2-106-39-122.6-91 20.2 3 38.4 3 59.2-2.4-60-12.2-105-65-105-128.8v-1.6c17.4 9.8 37.8 15.8 59.2 16.6-36.508-24.284-58.472-65.354-58.4-109.2 0-24.4 6.4-46.8 17.8-66.2 64.6 79.6 161.6 131.6 270.4 137.2-18.6-89 48-161.2 128-161.2 37.8 0 71.8 15.8 95.8 41.4 29.6-5.6 58-16.6 83.2-31.6-9.8 30.4-30.4 56-57.6 72.2 26.4-2.8 52-10.2 75.6-20.4-17.8 26.2-40.2 49.4-65.8 68z" fill="#fffcf9" fill-rule="nonzero"/></svg>