<svg viewBox="0 0 896 1024" xmlns="http://www.w3.org/2000/svg" fill-rule="evenodd" clip-rule="evenodd" stroke-linejoin="round" stroke-miterlimit="1.414"><path d="M832 64H63.8C28.6 64 0 93 0 128.6v766.8C0 931 28.6 960 63.8 960H832c35.2 0 64-29 64-64.6V128.6C896 93 867.2 64 832 64zM270.8 832H138V404.4h133V832h-.2zm-66.4-486c-42.6 0-77-34.6-77-77s34.4-77 77-77c42.4 0 77 34.6 77 77 0 42.6-34.4 77-77 77zm564.2 486H635.8V624c0-49.6-1-113.4-69-113.4-69.2 0-79.8 54-79.8 109.8V832H354.2V404.4h127.4v58.4h1.8c17.8-33.6 61.2-69 125.8-69 134.4 0 159.4 88.6 159.4 203.8V832z" fill="#fffcf9" fill-rule="nonzero"/></svg>